<?xml version="1.0" standalone="no"?>
<!DOCTYPE svg PUBLIC "-//W3C//DTD SVG 20010904//EN"
 "http://www.w3.org/TR/2001/REC-SVG-20010904/DTD/svg10.dtd">
<svg version="1.0" xmlns="http://www.w3.org/2000/svg"
 width="18.000000pt" height="18.000000pt" viewBox="0 0 512.000000 512.000000"
 preserveAspectRatio="xMidYMid meet">

<g transform="translate(0.000000,512.000000) scale(0.100000,-0.100000)"
fill="#f76d0a" stroke="none">
<path d="M1916 5109 c-62 -15 -153 -68 -197 -116 -22 -24 -55 -74 -72 -111
-31 -66 -32 -71 -35 -234 l-4 -168 -512 0 c-555 0 -570 -1 -678 -56 -77 -39
-162 -126 -202 -206 -47 -93 -58 -156 -54 -308 3 -140 10 -158 72 -204 39 -29
133 -29 172 0 62 46 69 64 74 214 5 150 12 168 74 214 l27 21 1979 0 1979 0
27 -21 c62 -46 69 -64 74 -214 5 -150 12 -168 74 -214 39 -29 133 -29 172 0
62 46 69 64 72 204 4 152 -7 215 -54 308 -40 80 -125 167 -202 206 -108 55
-124 56 -673 56 l-507 0 -3 168 -4 168 -37 76 c-45 91 -103 147 -196 191 l-67
32 -630 2 c-360 1 -647 -3 -669 -8z m1259 -334 c24 -23 25 -29 25 -160 l0
-135 -635 0 -635 0 0 135 c0 131 1 137 25 160 l24 25 586 0 586 0 24 -25z"/>
<path d="M735 3666 c-41 -18 -83 -69 -90 -109 -4 -18 3 -159 14 -313 11 -153
61 -848 110 -1544 50 -696 96 -1290 102 -1320 26 -125 126 -259 238 -319 121
-64 47 -61 1451 -61 1404 0 1330 -3 1451 61 116 62 214 198 239 329 16 84 232
3130 225 3170 -14 74 -106 131 -188 116 -47 -9 -105 -60 -117 -104 -6 -20 -60
-730 -120 -1577 -61 -847 -115 -1554 -120 -1571 -12 -37 -54 -79 -93 -93 -40
-15 -2514 -15 -2554 0 -39 14 -81 56 -93 93 -5 17 -55 659 -110 1426 -55 767
-105 1465 -111 1550 -6 85 -17 169 -24 186 -29 72 -138 113 -210 80z"/>
<path d="M1655 3356 c-39 -17 -81 -67 -90 -104 -3 -16 17 -544 45 -1173 40
-916 54 -1153 66 -1187 29 -78 117 -119 197 -93 45 15 94 70 102 115 7 36 -92
2307 -102 2341 -26 87 -134 138 -218 101z"/>
<path d="M3340 3359 c-37 -15 -78 -58 -89 -93 -13 -39 -115 -2306 -106 -2352
8 -45 57 -100 102 -115 80 -26 168 15 197 93 21 59 123 2322 106 2372 -27 81
-128 127 -210 95z"/>
<path d="M2495 3346 c-41 -18 -83 -69 -90 -109 -3 -18 -4 -550 -3 -1184 3
-1145 3 -1152 24 -1179 39 -53 71 -69 134 -69 63 0 95 16 134 69 21 27 21 31
21 1206 0 1175 0 1179 -21 1206 -11 15 -32 37 -46 47 -33 25 -113 32 -153 13z"/>
</g>
</svg>
