<?xml version="1.0" standalone="no"?>
<!DOCTYPE svg PUBLIC "-//W3C//DTD SVG 20010904//EN"
 "http://www.w3.org/TR/2001/REC-SVG-20010904/DTD/svg10.dtd">
<svg version="1.0" xmlns="http://www.w3.org/2000/svg"
 width="14.000000pt" height="14.000000pt" viewBox="0 0 512.000000 512.000000"
 preserveAspectRatio="xMidYMid meet">

<g transform="translate(0.000000,512.000000) scale(0.100000,-0.100000)"
fill="#000000" stroke="none">
<path d="M4205 5051 c-134 -39 -176 -70 -399 -290 -132 -131 -215 -221 -227
-246 -25 -54 -24 -138 2 -195 15 -33 108 -133 359 -385 l340 -340 -1604 -1604
-1605 -1605 -363 -57 c-200 -32 -375 -58 -390 -59 -26 0 -26 1 -22 53 3 28 16
186 28 350 l23 299 1471 1471 c810 810 1472 1477 1472 1482 0 6 -35 45 -78 88
l-77 77 -1483 -1483 -1484 -1484 -40 -527 c-22 -289 -38 -529 -35 -532 3 -3
243 13 534 35 l528 41 1659 1658 c1272 1271 1663 1667 1678 1701 11 24 21 65
21 90 1 99 0 101 -374 476 l-349 350 183 182 c109 108 199 190 225 202 149 75
312 35 471 -115 134 -126 192 -235 192 -363 1 -113 -27 -168 -145 -289 l-100
-103 82 -82 82 -82 81 80 c88 88 114 130 152 250 89 284 43 521 -141 716 -117
125 -250 210 -379 243 -79 21 -212 19 -288 -3z"/>
</g>
</svg>
