<?xml version="1.0" standalone="no"?>
<!DOCTYPE svg PUBLIC "-//W3C//DTD SVG 20010904//EN"
 "http://www.w3.org/TR/2001/REC-SVG-20010904/DTD/svg10.dtd">
<svg version="1.0" xmlns="http://www.w3.org/2000/svg"
 width="18.000000pt" height="18.000000pt" viewBox="0 0 900.000000 900.000000"
 preserveAspectRatio="xMidYMid meet">
<metadata>
Created by potrace 1.16, written by Peter Selinger 2001-2019
</metadata>
<g transform="translate(0.000000,900.000000) scale(0.100000,-0.100000)"
fill="#000000" stroke="none">
<path d="M6313 8620 c-18 -11 -1087 -1074 -2376 -2362 -1858 -1857 -2347
-2350 -2355 -2378 -5 -19 -179 -483 -387 -1030 -207 -547 -403 -1067 -437
-1155 -33 -88 -78 -205 -99 -260 -220 -575 -299 -794 -299 -830 0 -86 72 -164
157 -172 43 -4 111 19 713 247 366 139 782 296 926 350 144 55 438 166 655
248 217 82 534 202 704 267 171 64 319 122 330 127 15 8 285 261 316 296 24
28 1669 1681 2900 2915 822 824 1499 1510 1506 1525 22 49 16 114 -16 163 -45
72 -134 100 -216 69 -18 -7 -859 -839 -2186 -2166 l-2155 -2155 -76 30 c-117
46 -221 70 -363 82 -71 7 -132 13 -134 15 -1 1 15 42 38 91 31 68 43 109 52
183 67 551 -304 927 -851 861 -75 -9 -112 -20 -178 -51 -46 -22 -85 -40 -85
-40 -1 0 -3 48 -3 108 -2 136 -27 235 -94 367 l-50 100 2145 2145 c1532 1533
2149 2156 2160 2182 50 123 -34 248 -168 248 -24 0 -56 -8 -74 -20z m-4301
-4887 c20 -50 23 -75 22 -183 0 -113 -4 -134 -33 -225 -40 -119 -41 -161 -7
-220 44 -75 150 -107 223 -67 17 9 61 34 97 55 91 54 218 103 315 122 115 24
267 17 338 -14 61 -27 136 -102 164 -165 73 -167 24 -449 -123 -698 -32 -55
-40 -77 -40 -117 1 -83 51 -148 132 -172 34 -10 52 -9 122 10 111 29 240 44
313 36 92 -10 175 -27 181 -37 9 -15 -63 -84 -99 -95 -29 -10 -1607 -609
-1836 -697 -52 -20 -100 -35 -105 -34 -6 2 -125 118 -263 258 l-253 255 151
400 c83 220 249 663 370 985 195 518 224 589 257 623 20 20 39 37 43 37 4 0
18 -26 31 -57z"/>
</g>
</svg>
