<svg width="2138" height="2138" xmlns="http://www.w3.org/2000/svg" preserveAspectRatio="xMidYMid meet">
 <metadata>Created by potrace 1.16, written by Peter Selinger 2001-2019</metadata>
 <defs>
  <filter id="svg_4_blur">
   <feGaussianBlur stdDeviation="0" in="SourceGraphic"/>
  </filter>
  <filter id="svg_1_blur">
   <feGaussianBlur stdDeviation="0" in="SourceGraphic"/>
  </filter>
 </defs>
 <g>
  <title>background</title>
  <rect fill="none" id="canvas_background" height="602" width="802" y="-1" x="-1"/>
 </g>
 <g>
  <title>Layer 1</title>
  <g filter="url(#svg_1_blur)" id="svg_1" fill="#000000" transform="translate(0, 2138) scale(0.1, -0.1)">
   <path id="svg_2" d="m10275,16709c-1123,-43 -2345,-313 -3425,-754c-1817,-742 -3468,-2068 -4694,-3768c-283,-392 -683,-1030 -757,-1207c-187,-445 103,-913 581,-937c116,-6 203,12 310,65c58,28 96,58 171,132c88,88 107,113 236,330c376,632 718,1108 1172,1630c174,200 653,679 847,847c1317,1136 2771,1881 4254,2177c560,112 977,151 1600,151c518,0 834,-22 1290,-91c2197,-329 4045,-1330 5520,-2989c369,-415 746,-909 1043,-1366c96,-149 107,-170 107,-214c0,-50 -29,-102 -188,-341c-413,-622 -803,-1104 -1277,-1580c-304,-305 -543,-516 -890,-785c-973,-755 -1994,-1296 -3041,-1614c-605,-183 -1213,-293 -1869,-336c-251,-16 -819,-14 -1085,5c-993,71 -1989,298 -2850,648c-856,349 -1698,872 -2449,1522c-197,170 -316,281 -596,557c-148,146 -290,279 -315,296c-222,149 -472,175 -686,71c-182,-89 -319,-267 -359,-467c-36,-178 18,-379 150,-561c59,-81 582,-604 771,-771c706,-624 1744,-1301 2644,-1724c1855,-873 3725,-1137 5703,-804c1035,173 2171,546 3129,1025c1801,901 3293,2343 4478,4329c62,105 126,218 142,253c80,177 77,373 -11,565c-36,81 -214,380 -383,644c-689,1079 -1562,2042 -2582,2852c-930,739 -1977,1310 -3071,1676c-958,321 -1924,492 -3020,535c-272,11 -316,11 -600,-1z"/>
   <path id="svg_3" d="m10555,14043c-894,-30 -1758,-433 -2358,-1098c-481,-533 -771,-1185 -848,-1910c-17,-162 -14,-523 6,-690c91,-771 419,-1449 960,-1990c552,-552 1263,-889 2039,-965c142,-14 481,-14 621,0c418,41 815,154 1174,334c1026,515 1715,1505 1836,2636c19,177 19,513 0,696c-114,1081 -753,2044 -1711,2577c-509,283 -1126,430 -1719,410zm323,-1344c226,-24 439,-84 637,-178c227,-108 386,-221 566,-400c333,-333 532,-753 579,-1220c59,-598 -174,-1221 -613,-1637c-801,-761 -2047,-733 -2818,63c-380,392 -575,897 -556,1438c7,179 24,296 67,463c127,487 459,930 892,1190c277,167 516,244 883,286c70,8 273,5 363,-5z"/>
  </g>
  <line filter="url(#svg_4_blur)" stroke-linecap="undefined" stroke-linejoin="undefined" id="svg_4" y2="1617.75179" x2="1949.00289" y1="520.24815" x1="188.99706" stroke-width="99" stroke="#000" fill="none"/>
 </g>
</svg>