<?xml version="1.0" standalone="no"?>
<!DOCTYPE svg PUBLIC "-//W3C//DTD SVG 20010904//EN"
 "http://www.w3.org/TR/2001/REC-SVG-20010904/DTD/svg10.dtd">
<svg version="1.0" xmlns="http://www.w3.org/2000/svg"
 width="21.000000pt" height="21.000000pt" viewBox="0 0 1280.000000 1280.000000"
 preserveAspectRatio="xMidYMid meet">
<metadata>
Created by potrace 1.16, written by Peter Selinger 2001-2019
</metadata>
<g transform="translate(0.000000,1280.000000) scale(0.100000,-0.100000)"
fill="#000000" stroke="none">
<path d="M5975 9999 c-495 -37 -1023 -144 -1500 -303 -482 -161 -986 -406
-1413 -686 l-134 -88 -808 504 c-445 277 -815 506 -823 510 -10 3 -59 -67
-171 -247 -126 -202 -154 -255 -144 -264 7 -7 326 -207 708 -445 382 -238 701
-438 708 -444 10 -10 -4 -27 -70 -87 -381 -340 -681 -665 -971 -1054 -194
-259 -434 -634 -514 -801 -36 -76 -38 -83 -38 -184 0 -97 2 -110 32 -172 40
-85 106 -151 191 -191 62 -30 75 -32 172 -32 94 0 111 3 163 27 88 41 159 121
267 299 302 499 541 810 909 1183 205 207 358 346 534 484 l79 61 51 -32 c29
-18 343 -215 699 -436 l647 -404 -13 -26 c-19 -37 -72 -202 -95 -296 -49 -196
-66 -491 -40 -695 43 -354 176 -687 381 -962 77 -103 248 -280 348 -361 468
-378 1069 -523 1665 -402 378 77 715 258 1000 537 60 60 111 108 114 108 9 0
1151 -715 1151 -721 0 -8 -264 -156 -398 -224 -529 -263 -1038 -418 -1635
-496 -228 -30 -786 -38 -1032 -15 -707 67 -1375 251 -1934 531 -374 187 -748
435 -1085 718 -129 109 -233 205 -452 419 -115 112 -155 144 -210 171 -65 30
-75 32 -184 32 -112 0 -117 -1 -178 -34 -161 -88 -246 -279 -197 -447 34 -120
66 -163 284 -381 244 -244 364 -349 606 -531 369 -277 725 -496 1130 -697 552
-273 1057 -442 1615 -540 567 -99 1213 -104 1805 -15 885 134 1825 486 2534
947 62 41 119 72 125 70 7 -3 377 -233 823 -511 446 -278 818 -508 826 -512
10 -4 58 66 171 247 127 204 154 255 144 265 -10 9 -1235 775 -1430 894 l-27
16 87 74 c128 111 452 436 581 585 315 360 666 854 870 1219 99 179 104 296
20 461 -88 170 -330 541 -510 781 -478 639 -1115 1234 -1759 1645 -887 566
-1855 877 -2955 949 -175 11 -562 11 -720 -1z m893 -823 c1654 -195 2954 -967
3961 -2354 106 -146 247 -361 256 -390 10 -33 -20 -88 -162 -295 -358 -520
-726 -923 -1164 -1273 -132 -105 -144 -113 -163 -100 -12 7 -322 201 -691 431
-368 229 -671 419 -673 420 -2 2 17 62 42 133 59 172 94 341 106 518 39 583
-155 1120 -554 1533 -337 347 -750 550 -1228 602 -165 18 -437 6 -593 -25
-399 -82 -749 -268 -1031 -550 l-111 -111 -560 350 c-308 193 -570 357 -582
365 -21 14 -17 18 101 85 692 394 1402 619 2133 675 170 13 758 4 913 -14z
m-276 -1591 c160 -28 341 -103 477 -198 151 -106 327 -316 400 -478 91 -203
129 -435 101 -634 -9 -66 -39 -206 -46 -214 -2 -3 -1827 1131 -1922 1195 l-34
22 65 54 c144 118 327 205 512 244 133 27 320 31 447 9z m-267 -1495 c479
-298 872 -544 873 -545 2 -2 -33 -33 -78 -68 -98 -77 -263 -165 -380 -202
-503 -157 -1053 43 -1349 491 -125 188 -180 360 -188 586 -6 140 5 258 33 355
l14 52 103 -63 c56 -35 494 -307 972 -606z"/>
</g>
</svg>
