<svg width="1000" height="1000" xmlns="http://www.w3.org/2000/svg">
 <metadata>Svg Vector Icons : http://www.onlinewebfonts.com/icon</metadata>

 <g>
  <title>background</title>
  <rect x="-1" y="-1" width="1002" height="1002" id="canvas_background" fill="none"/>
 </g>
 <g>
  <title>Layer 1</title>
  <g id="svg_1">
   <path d="m984.4,763.1c-24.3,-109 -122.2,-198 -256.5,-245.7c42.6,-51.1 66,-117.6 66,-188.9c0.1,-162.1 -131.8,-294.1 -293.9,-294.1c-162,0 -293.9,131.9 -293.9,294.1c0,162.2 131.9,294.1 293.9,294.1c73.1,0 141,-25.6 192.9,-70c129.9,41.2 226.9,122 248.6,220c3,13.7 4.6,27.8 4.6,41.8c0,37.7 -27.7,71.4 -28,71.7c-12.1,16.2 -41.6,30.9 -61.9,31l-720.4,0.9l0,25.9l0,-25.9c-19.8,0 -47.6,-15 -58.3,-31.6c-0.3,-0.4 -23.7,-33.3 -23.7,-71.9c0,-17.9 2.5,-35.9 7.6,-53.3c20.2,-70.7 78.8,-131.3 159.9,-173.6c-11,-10.1 -21.4,-21 -30.8,-32.6c-86.2,47.7 -148.7,115.4 -171.3,194c-6.1,21.3 -9.2,43.3 -9.2,65.2c0,52 29.4,97.9 30.7,99.8c18.8,28.9 60.6,51.5 95.1,51.5l0.1,0l720.3,-0.9c34.1,0 76.8,-21.3 97.1,-48.5c1.5,-2 36.7,-49.5 36.7,-101.9c0,-17.1 -1.9,-34.3 -5.6,-51.1l0,0l0,0zm-729.4,-434.6c0,-135.2 109.9,-245.2 245,-245.2c135.1,0 245,110 245,245.2c0,135.2 -109.9,245.2 -245,245.2c-135.1,0 -245,-110 -245,-245.2l0,0l0,0z" id="svg_2" fill="#f94509" stroke-width="40"/>
  </g>
 </g>
</svg>