<?xml version="1.0" standalone="no"?>
<!DOCTYPE svg PUBLIC "-//W3C//DTD SVG 20010904//EN"
 "http://www.w3.org/TR/2001/REC-SVG-20010904/DTD/svg10.dtd">
<svg version="1.0" xmlns="http://www.w3.org/2000/svg"
 width="980.000000pt" height="988.000000pt" viewBox="0 0 980.000000 988.000000"
 preserveAspectRatio="xMidYMid meet">

<g transform="translate(0.000000,988.000000) scale(0.100000,-0.100000)"
fill="#000000" stroke="none">
<path d="M3835 9874 c-467 -36 -854 -122 -1255 -281 -542 -214 -1019 -534
-1430 -959 -637 -659 -1015 -1460 -1126 -2389 -26 -211 -26 -689 0 -900 72
-604 253 -1140 556 -1649 277 -466 702 -923 1155 -1242 254 -179 572 -351 855
-461 893 -350 1895 -374 2805 -67 414 139 794 342 1160 617 l99 75 1258 -1251
c692 -689 1280 -1269 1306 -1290 176 -140 442 -77 543 129 59 119 45 273 -33
370 -18 22 -592 596 -1275 1275 -683 679 -1309 1307 -1392 1396 -165 176 -206
205 -314 223 -68 11 -152 -1 -211 -30 -22 -11 -101 -69 -174 -129 -230 -188
-502 -373 -712 -485 -275 -145 -634 -269 -966 -335 -383 -76 -848 -74 -1244 5
-1362 270 -2416 1340 -2664 2704 -39 213 -50 348 -50 595 0 247 11 382 50 595
194 1069 882 1967 1867 2440 457 219 917 323 1437 323 240 0 354 -9 565 -44
1306 -217 2375 -1205 2699 -2496 70 -280 96 -498 96 -803 0 -400 -53 -722
-186 -1116 -52 -156 -56 -174 -52 -240 8 -128 76 -233 190 -295 60 -33 67 -34
168 -34 95 0 110 3 157 27 117 62 151 111 225 320 94 268 162 577 204 928 21
173 24 591 6 770 -74 714 -286 1313 -667 1885 -411 617 -962 1098 -1625 1418
-425 206 -839 326 -1320 382 -128 15 -592 28 -705 19z"/>
</g>
</svg>
