<?xml version="1.0" standalone="no"?>
<!DOCTYPE svg PUBLIC "-//W3C//DTD SVG 20010904//EN"
 "http://www.w3.org/TR/2001/REC-SVG-20010904/DTD/svg10.dtd">
<svg version="1.0" xmlns="http://www.w3.org/2000/svg"
 width="21.000000pt" height="21.000000pt" viewBox="0 0 2138.000000 2138.000000"
 preserveAspectRatio="xMidYMid meet">
<metadata>
Created by potrace 1.16, written by Peter Selinger 2001-2019
</metadata>
<g transform="translate(0.000000,2138.000000) scale(0.100000,-0.100000)"
fill="#000000" stroke="none">
<path d="M10275 16709 c-1123 -43 -2345 -313 -3425 -754 -1817 -742 -3468
-2068 -4694 -3768 -283 -392 -683 -1030 -757 -1207 -187 -445 103 -913 581
-937 116 -6 203 12 310 65 58 28 96 58 171 132 88 88 107 113 236 330 376 632
718 1108 1172 1630 174 200 653 679 847 847 1317 1136 2771 1881 4254 2177
560 112 977 151 1600 151 518 0 834 -22 1290 -91 2197 -329 4045 -1330 5520
-2989 369 -415 746 -909 1043 -1366 96 -149 107 -170 107 -214 0 -50 -29 -102
-188 -341 -413 -622 -803 -1104 -1277 -1580 -304 -305 -543 -516 -890 -785
-973 -755 -1994 -1296 -3041 -1614 -605 -183 -1213 -293 -1869 -336 -251 -16
-819 -14 -1085 5 -993 71 -1989 298 -2850 648 -856 349 -1698 872 -2449 1522
-197 170 -316 281 -596 557 -148 146 -290 279 -315 296 -222 149 -472 175
-686 71 -182 -89 -319 -267 -359 -467 -36 -178 18 -379 150 -561 59 -81 582
-604 771 -771 706 -624 1744 -1301 2644 -1724 1855 -873 3725 -1137 5703 -804
1035 173 2171 546 3129 1025 1801 901 3293 2343 4478 4329 62 105 126 218 142
253 80 177 77 373 -11 565 -36 81 -214 380 -383 644 -689 1079 -1562 2042
-2582 2852 -930 739 -1977 1310 -3071 1676 -958 321 -1924 492 -3020 535 -272
11 -316 11 -600 -1z"/>
<path d="M10555 14043 c-894 -30 -1758 -433 -2358 -1098 -481 -533 -771 -1185
-848 -1910 -17 -162 -14 -523 6 -690 91 -771 419 -1449 960 -1990 552 -552
1263 -889 2039 -965 142 -14 481 -14 621 0 418 41 815 154 1174 334 1026 515
1715 1505 1836 2636 19 177 19 513 0 696 -114 1081 -753 2044 -1711 2577 -509
283 -1126 430 -1719 410z m323 -1344 c226 -24 439 -84 637 -178 227 -108 386
-221 566 -400 333 -333 532 -753 579 -1220 59 -598 -174 -1221 -613 -1637
-801 -761 -2047 -733 -2818 63 -380 392 -575 897 -556 1438 7 179 24 296 67
463 127 487 459 930 892 1190 277 167 516 244 883 286 70 8 273 5 363 -5z"/>
</g>
</svg>
