<?xml version="1.0" standalone="no"?>
<!DOCTYPE svg PUBLIC "-//W3C//DTD SVG 20010904//EN"
 "http://www.w3.org/TR/2001/REC-SVG-20010904/DTD/svg10.dtd">
<svg version="1.0" xmlns="http://www.w3.org/2000/svg"
 width="128.000000pt" height="128.000000pt" viewBox="0 0 128.000000 128.000000"
 preserveAspectRatio="xMidYMid meet">
<metadata>
Created by potrace 1.16, written by Peter Selinger 2001-2019
</metadata>
<g transform="translate(0.000000,128.000000) scale(0.025000,-0.025000)"
fill="#0c555e" stroke="none">
<path d="M2226 5084 c-978 -125 -1808 -815 -2109 -1751 -84 -260 -117 -477
-117 -768 0 -203 15 -355 51 -525 32 -147 121 -404 188 -545 34 -71 61 -136
61 -145 0 -9 -52 -252 -115 -539 -73 -330 -115 -543 -115 -580 0 -113 83 -191
201 -191 32 1 270 50 593 124 l539 123 111 -49 c322 -143 612 -207 974 -215
464 -11 817 65 1219 264 229 113 270 157 261 289 -3 52 -9 70 -35 101 -47 59
-87 78 -163 78 -60 0 -72 -4 -155 -51 -214 -121 -440 -201 -700 -249 -119 -22
-460 -31 -591 -16 -260 31 -495 101 -729 218 -59 29 -107 46 -140 49 -39 4
-148 -18 -480 -94 -236 -55 -431 -99 -432 -98 -1 1 41 195 93 431 68 308 94
441 90 470 -3 22 -41 110 -84 195 -89 177 -158 372 -197 560 -37 173 -46 475
-20 664 53 397 218 775 470 1075 355 423 829 687 1374 765 150 22 428 22 580
1 956 -134 1711 -885 1846 -1837 20 -137 19 -417 -1 -559 -41 -294 -152 -601
-305 -839 -68 -107 -82 -144 -77 -208 9 -110 100 -186 213 -180 90 5 125 32
203 151 206 318 342 708 383 1095 17 170 7 525 -21 681 -62 355 -193 680 -391
976 -421 630 -1080 1039 -1819 1130 -155 19 -502 18 -654 -1z"/>
<path d="M1665 3666 c-40 -18 -83 -58 -141 -131 -101 -127 -139 -257 -132
-443 8 -193 72 -351 236 -586 263 -376 529 -631 832 -798 135 -75 457 -189
617 -219 36 -6 113 -10 181 -7 114 4 122 5 203 45 160 77 250 164 285 278 23
72 31 230 13 252 -8 9 -124 71 -259 136 -243 119 -313 143 -353 121 -8 -5 -46
-49 -84 -99 -39 -49 -92 -114 -118 -144 -46 -50 -51 -53 -89 -49 -42 5 -211
84 -301 140 -145 92 -313 246 -417 383 -79 105 -138 203 -138 230 0 19 21 49
73 106 84 93 116 149 117 203 0 27 -28 107 -91 259 -145 354 -131 337 -293
337 -71 -1 -122 -6 -141 -14z"/>
</g>
</svg>
